<svg viewBox="0 0 16 16" xmlns="http://www.w3.org/2000/svg"><path d="M10.25 4.375C10.25 4.73967 10.3949 5.08941 10.6527 5.34727C10.9106 5.60513 11.2603 5.75 11.625 5.75C11.9897 5.75 12.3394 5.60513 12.5973 5.34727C12.8551 5.08941 13 4.73967 13 4.375C13 4.01033 12.8551 3.66059 12.5973 3.40273C12.3394 3.14487 11.9897 3 11.625 3C11.2603 3 10.9106 3.14487 10.6527 3.40273C10.3949 3.66059 10.25 4.01033 10.25 4.375Z"/><path d="M14.8223 0H9.42136C9.10904 6.6702e-05 8.80953 0.124189 8.58872 0.345067L0.344814 8.58898C0.124029 8.80983 -8.14269e-07 9.10933 -8.14269e-07 9.42161C-8.14269e-07 9.7339 0.124029 10.0334 0.344814 10.2542L5.74575 15.6552C5.96661 15.876 6.2661 16 6.57839 16C6.89067 16 7.19017 15.876 7.41102 15.6552L15.6549 7.41128C15.8758 7.19047 15.9999 6.89096 16 6.57864V1.1777C16 0.865356 15.8759 0.565803 15.6551 0.344941C15.4342 0.124079 15.1346 0 14.8223 0ZM14.6191 6.57864L6.57839 14.6123L1.38767 9.42161L9.42136 1.38086H14.6191V6.57864Z"/></svg>
